# xmcd
# 
# Track frame offsets:
#     150
#     11385
#     23297
#     33820
#     46900
#     58325
#     73242
#     86020
#     98935
#     112022
#     125225
#     139640
#     155602
#     169787
#     187122
#     202680
# 
# Disc length: 2915
# 
# Revision: 10
# Processed by: cddbd v1.5.2PL0 Copyright (c) Steve Scherf et al.
# Submitted via: fre:ac v1.0.27
# 
DISCID=d70b6110
DTITLE=Madness - It's... Madness Too
DYEAR=1991
DGENRE=Ska
TTITLE0=The Prince
TTITLE1=Madness
TTITLE2=One Step Beyond
TTITLE3=Mistakes
TTITLE4=The Return Of The Los Palmas 7
TTITLE5=Night Boat To Cairo
TTITLE6=Shut Up
TTITLE7=A Town With No Name
TTITLE8=Cardiac Arrest
TTITLE9=In The City
TTITLE10=Our House
TTITLE11=Walking With Mr. Wheeze
TTITLE12=Tomorrow's (Just Another Day)
TTITLE13=Victoria Gardens
TTITLE14=The Sun And The Rain
TTITLE15=Michael Caine
EXTD=YEAR: 1991
EXTT0=
EXTT1=
EXTT2=
EXTT3=
EXTT4=
EXTT5=
EXTT6=
EXTT7=
EXTT8=
EXTT9=
EXTT10=
EXTT11=
EXTT12=
EXTT13=
EXTT14=
EXTT15=
PLAYORDER=
